<svg xmlns="http://www.w3.org/2000/svg" viewBox="0 0 780 600" font-family="-apple-system,Segoe UI,Roboto,Helvetica,Arial,sans-serif">
<rect width="780" height="600" fill="#ffffff"/>
<text x="70" y="30" font-size="19" font-weight="700" fill="#1f2933">Finnish industry: private-5G &amp; AI priority matrix</text>
<text x="70" y="49" font-size="12" fill="#7b8794">Bubble size = combined score · amber = asset-heavy (primary private-5G target) · source: Statistics Finland</text>
<rect x="329.08" y="64" width="420.92" height="332.28799999999995" fill="#ecfdf5"/>
<rect x="70" y="64" width="259.08" height="332.28799999999995" fill="#fffbeb"/>
<rect x="70" y="64" width="680" height="472" fill="none" stroke="#e4e7eb"/>
<line x1="240.0" y1="64" x2="240.0" y2="536" stroke="#e4e7eb" stroke-width="1"/>
<line x1="70" y1="418.0" x2="750" y2="418.0" stroke="#e4e7eb" stroke-width="1"/>
<line x1="410.0" y1="64" x2="410.0" y2="536" stroke="#e4e7eb" stroke-width="1"/>
<line x1="70" y1="300.0" x2="750" y2="300.0" stroke="#e4e7eb" stroke-width="1"/>
<line x1="580.0" y1="64" x2="580.0" y2="536" stroke="#e4e7eb" stroke-width="1"/>
<line x1="70" y1="182.0" x2="750" y2="182.0" stroke="#e4e7eb" stroke-width="1"/>
<line x1="329.08" y1="64" x2="329.08" y2="536" stroke="#7b8794" stroke-width="1.3" stroke-dasharray="5 4"/>
<line x1="70" y1="396.28799999999995" x2="750" y2="396.28799999999995" stroke="#7b8794" stroke-width="1.3" stroke-dasharray="5 4"/>
<text x="742.0" y="80" text-anchor="end" font-size="11" font-weight="700" fill="#047857">LEAD</text>
<text x="78" y="80" font-size="11" font-weight="700" fill="#b45309">DEVELOP / ENABLE</text>
<text x="410.0" y="578" text-anchor="middle" font-size="13" font-weight="600" fill="#1f2933">AI &amp; 5G readiness  →</text>
<text transform="translate(22,300.0) rotate(-90)" text-anchor="middle" font-size="13" font-weight="600" fill="#1f2933">Market attractiveness  →</text>
<circle cx="379.4" cy="130.6" r="21.9" fill="#d97706" fill-opacity="0.20" stroke="#d97706" stroke-width="1.8"/>
<circle cx="379.4" cy="130.6" r="3" fill="#d97706"/>
<line x1="379.4" y1="130.6" x2="409.3" y2="130.6" stroke="#d97706" stroke-width="0.8" stroke-opacity="0.5"/>
<text x="413.3" y="134.6" text-anchor="start" font-size="11.5" font-weight="600" fill="#1f2933">Manufacturing &amp; Energy</text>
<circle cx="714.0" cy="475.6" r="19.8" fill="#0f766e" fill-opacity="0.20" stroke="#0f766e" stroke-width="1.8"/>
<circle cx="714.0" cy="475.6" r="3" fill="#0f766e"/>
<line x1="714.0" y1="475.6" x2="686.2" y2="482.6" stroke="#0f766e" stroke-width="0.8" stroke-opacity="0.5"/>
<text x="682.2" y="486.6" text-anchor="end" font-size="11.5" font-weight="600" fill="#1f2933">Information &amp; Communication</text>
<circle cx="537.2" cy="396.8" r="18.9" fill="#0f766e" fill-opacity="0.20" stroke="#0f766e" stroke-width="1.8"/>
<circle cx="537.2" cy="396.8" r="3" fill="#0f766e"/>
<line x1="537.2" y1="396.8" x2="510.2" y2="412.2" stroke="#0f766e" stroke-width="0.8" stroke-opacity="0.5"/>
<text x="506.2" y="416.2" text-anchor="end" font-size="11.5" font-weight="600" fill="#1f2933">Professional &amp; Technical</text>
<circle cx="334.5" cy="364.2" r="16.8" fill="#0f766e" fill-opacity="0.20" stroke="#0f766e" stroke-width="1.8"/>
<circle cx="334.5" cy="364.2" r="3" fill="#0f766e"/>
<line x1="334.5" y1="364.2" x2="359.4" y2="364.2" stroke="#0f766e" stroke-width="0.8" stroke-opacity="0.5"/>
<text x="363.4" y="368.2" text-anchor="start" font-size="11.5" font-weight="600" fill="#1f2933">Real Estate &amp; Admin</text>
<circle cx="344.7" cy="372.7" r="16.8" fill="#0f766e" fill-opacity="0.20" stroke="#0f766e" stroke-width="1.8"/>
<circle cx="344.7" cy="372.7" r="3" fill="#0f766e"/>
<line x1="344.7" y1="372.7" x2="369.5" y2="380.2" stroke="#0f766e" stroke-width="0.8" stroke-opacity="0.5"/>
<text x="373.5" y="384.2" text-anchor="start" font-size="11.5" font-weight="600" fill="#1f2933">Wholesale &amp; Vehicle Trade</text>
<circle cx="171.3" cy="378.4" r="14.4" fill="#d97706" fill-opacity="0.20" stroke="#d97706" stroke-width="1.8"/>
<circle cx="171.3" cy="378.4" r="3" fill="#d97706"/>
<line x1="171.3" y1="378.4" x2="193.7" y2="396.2" stroke="#d97706" stroke-width="0.8" stroke-opacity="0.5"/>
<text x="197.7" y="400.2" text-anchor="start" font-size="11.5" font-weight="600" fill="#1f2933">Construction</text>
<circle cx="198.5" cy="446.8" r="13.4" fill="#0f766e" fill-opacity="0.20" stroke="#0f766e" stroke-width="1.8"/>
<circle cx="198.5" cy="446.8" r="3" fill="#0f766e"/>
<line x1="198.5" y1="446.8" x2="220.0" y2="446.8" stroke="#0f766e" stroke-width="0.8" stroke-opacity="0.5"/>
<text x="224.0" y="450.8" text-anchor="start" font-size="11.5" font-weight="600" fill="#1f2933">Retail</text>
<circle cx="145.5" cy="466.6" r="12.3" fill="#d97706" fill-opacity="0.20" stroke="#d97706" stroke-width="1.8"/>
<circle cx="145.5" cy="466.6" r="3" fill="#d97706"/>
<line x1="145.5" y1="466.6" x2="165.8" y2="466.6" stroke="#d97706" stroke-width="0.8" stroke-opacity="0.5"/>
<text x="169.8" y="470.6" text-anchor="start" font-size="11.5" font-weight="600" fill="#1f2933">Transport &amp; Storage</text>
<circle cx="133.9" cy="536.0" r="10.9" fill="#0f766e" fill-opacity="0.20" stroke="#0f766e" stroke-width="1.8"/>
<circle cx="133.9" cy="536.0" r="3" fill="#0f766e"/>
<line x1="133.9" y1="536.0" x2="152.8" y2="536.0" stroke="#0f766e" stroke-width="0.8" stroke-opacity="0.5"/>
<text x="156.8" y="540.0" text-anchor="start" font-size="11.5" font-weight="600" fill="#1f2933">Accommodation &amp; Food</text>
</svg>